<?xml version="1.0" standalone="no"?>
<!DOCTYPE svg PUBLIC "-//W3C//DTD SVG 20010904//EN"
 "http://www.w3.org/TR/2001/REC-SVG-20010904/DTD/svg10.dtd">
<svg version="1.0" xmlns="http://www.w3.org/2000/svg"
 width="700.000000pt" height="700.000000pt" viewBox="0 0 700.000000 700.000000"
 preserveAspectRatio="xMidYMid meet">
<metadata>
Created by potrace 1.16, written by Peter Selinger 2001-2019
</metadata>
<g transform="translate(0.000000,700.000000) scale(0.100000,-0.100000)"
fill="#000000" stroke="none">
<path d="M3260 6993 c-1188 -89 -2226 -746 -2814 -1782 -372 -657 -520 -1454
-410 -2211 62 -429 213 -870 424 -1235 759 -1318 2257 -1996 3745 -1694 1222
248 2229 1147 2620 2337 127 385 184 779 172 1186 -7 228 -24 385 -68 601
-328 1637 -1784 2820 -3448 2803 -97 -1 -196 -3 -221 -5z m651 -1683 c170 -32
319 -176 359 -348 16 -71 35 -80 102 -49 97 44 126 50 232 45 89 -4 110 -9
171 -38 191 -91 298 -305 254 -509 -15 -72 -4 -87 70 -94 93 -10 184 -51 253
-116 98 -90 142 -180 154 -310 21 -220 -150 -438 -375 -481 -73 -14 -3187 -14
-3262 0 -238 44 -410 283 -371 517 31 189 179 345 363 384 32 7 87 9 140 5
100 -8 100 -8 118 79 27 124 117 243 229 303 75 40 131 54 214 54 l68 0 61 63
c105 109 209 150 363 143 88 -4 101 -7 178 -46 46 -23 88 -42 94 -42 20 0 35
27 50 90 56 243 290 396 535 350z m-1241 -2145 l0 -145 -45 0 -45 0 0 145 0
145 45 0 45 0 0 -145z m1750 0 l0 -145 -47 0 -48 0 3 145 3 145 45 0 44 0 0
-145z m311 -274 c6 -14 9 -105 7 -209 -2 -149 -6 -185 -18 -192 -9 -6 -480
-10 -1222 -10 -1084 0 -1208 2 -1222 16 -13 13 -16 44 -16 188 0 96 3 188 6
205 l6 31 1207 2 c663 2 1214 1 1224 -1 10 -2 23 -15 28 -30z m-2061 -586 l0
-85 -45 0 -45 0 0 85 0 85 45 0 45 0 0 -85z m440 0 l0 -85 -50 0 -50 0 0 85 0
85 50 0 50 0 0 -85z m440 0 l0 -85 -50 0 -50 0 0 85 0 85 50 0 50 0 0 -85z
m440 0 l0 -85 -50 0 -50 0 0 85 0 85 50 0 50 0 0 -85z m430 0 l0 -85 -47 0
-48 0 3 85 3 85 45 0 44 0 0 -85z m310 -211 c6 -14 10 -101 10 -194 0 -93 -4
-180 -10 -194 l-10 -26 -1214 0 c-1091 0 -1216 2 -1230 16 -13 13 -16 46 -16
200 0 109 4 193 10 205 10 19 35 19 1231 19 l1219 0 10 -26z"/>
<path d="M2938 4299 c-175 -129 -218 -165 -218 -184 0 -19 43 -55 219 -184
120 -89 227 -161 238 -161 25 0 43 19 43 46 0 18 -41 53 -185 159 -102 75
-185 138 -185 140 0 2 83 65 185 140 142 105 185 142 185 159 0 28 -18 46 -44
46 -12 0 -119 -73 -238 -161z"/>
<path d="M3555 4451 c-5 -10 -43 -133 -139 -454 -62 -206 -62 -227 -5 -227 21
0 32 6 39 23 5 12 50 158 100 325 98 327 100 342 40 342 -16 0 -31 -4 -35 -9z"/>
<path d="M3792 4448 c-34 -34 -16 -54 174 -193 123 -92 182 -141 175 -148 -5
-5 -87 -67 -183 -137 -175 -128 -196 -152 -168 -186 7 -7 22 -14 34 -14 12 0
115 69 239 161 174 129 217 166 217 184 0 19 -43 55 -217 184 -120 89 -227
161 -238 161 -12 0 -26 -5 -33 -12z"/>
<path d="M3220 2838 c-54 -28 -82 -72 -82 -133 0 -117 111 -186 217 -135 80
39 110 140 63 210 -52 75 -124 96 -198 58z"/>
<path d="M3660 2849 c-125 -50 -133 -228 -13 -281 108 -47 215 22 215 138 0
60 -28 104 -82 132 -47 24 -80 27 -120 11z"/>
<path d="M2402 2738 c-7 -7 -12 -21 -12 -33 0 -38 19 -45 125 -45 106 0 125 7
125 45 0 38 -19 45 -125 45 -65 0 -105 -4 -113 -12z"/>
<path d="M2776 2734 c-9 -8 -16 -23 -16 -33 0 -34 21 -41 132 -41 96 0 108 2
118 19 14 27 13 37 -6 55 -12 12 -38 16 -114 16 -76 0 -102 -4 -114 -16z"/>
<path d="M3989 2729 c-8 -16 -8 -28 0 -46 11 -23 13 -24 122 -21 125 3 144 13
121 62 -11 26 -13 26 -121 26 -102 0 -111 -2 -122 -21z"/>
<path d="M4372 2738 c-7 -7 -12 -21 -12 -33 0 -38 19 -45 125 -45 106 0 125 7
125 45 0 38 -19 45 -125 45 -65 0 -105 -4 -113 -12z"/>
<path d="M3251 2050 c-44 -10 -100 -67 -110 -111 -28 -127 99 -228 215 -173
95 45 112 178 32 250 -20 19 -81 46 -97 43 -3 -1 -21 -5 -40 -9z"/>
<path d="M3670 2048 c-130 -35 -148 -224 -26 -282 104 -49 220 25 218 140 -1
99 -95 168 -192 142z"/>
<path d="M2408 1939 c-21 -12 -24 -52 -4 -68 9 -8 51 -11 122 -9 l109 3 3 28
c6 49 -10 57 -117 57 -53 0 -104 -5 -113 -11z"/>
<path d="M2777 1932 c-10 -10 -17 -25 -17 -33 0 -32 23 -39 132 -39 96 0 108
2 118 19 14 27 13 37 -6 55 -12 12 -38 16 -113 16 -82 0 -101 -3 -114 -18z"/>
<path d="M3997 1932 c-10 -10 -17 -25 -17 -33 0 -32 23 -39 130 -39 109 0 130
7 130 41 0 39 -27 49 -129 49 -82 0 -101 -3 -114 -18z"/>
<path d="M4366 1928 c-13 -19 -14 -25 -2 -43 12 -18 25 -20 116 -23 110 -3
130 4 130 44 0 35 -28 44 -134 44 -86 0 -96 -2 -110 -22z"/>
</g>
</svg>
